<svg xmlns="http://www.w3.org/2000/svg" width="36" height="35.974" viewBox="0 0 36 35.974"><path d="M219.3,808.321c-7.951-7.364-15.695-14.982-24.195-22.854,7.245.117,13.114-.815,18.881,2.779C221.9,793.174,223.2,803.358,219.3,808.321Z" transform="translate(-188.659 -785.44)" fill="#ee3a23"/><path d="M200.007,823.423h-9.933a5.438,5.438,0,0,1-3.737-1.762c-7.579-7.352-17.009-17.266-21.232-21.489a3.6,3.6,0,0,1-1.079-2.889c.017-4.441-.005-5.639-.005-9.8,12.326,12.1,24.156,24.33,35.986,35.941Z" transform="translate(-164.007 -787.471)" fill="#1a4895"/><path d="M164.239,837l16.179,16.3H164.239Z" transform="translate(-164.239 -817.325)" fill="#faca2a"/></svg>